<svg width="150" height="51" viewBox="0 0 150 51" fill="none" xmlns="http://www.w3.org/2000/svg">
<path d="M42.9972 9.2998L42.5772 15.9073H46.0647L39.1572 27.6973H48.1197L53.2347 17.2798L55.1172 27.6973H64.0797L60.3897 15.9073H64.8447L65.3547 9.2998H42.9972Z" fill="white"/>
<path d="M73.3422 15.9073H80.0772L80.4147 9.2998H67.4547L66.3447 27.6973H72.6447L73.3422 15.9073Z" fill="white"/>
<path d="M63.0378 29.73C61.5126 29.7285 60.0212 30.1794 58.7523 31.0257C57.4834 31.872 56.4941 33.0756 55.9094 34.4843C55.3247 35.893 55.1709 37.4435 55.4676 38.9395C55.7642 40.4356 56.4979 41.8101 57.5759 42.8891C58.6538 43.9682 60.0276 44.7032 61.5234 45.0013C63.0192 45.2994 64.5698 45.1472 65.9791 44.5638C67.3883 43.9805 68.5929 42.9923 69.4404 41.7242C70.2879 40.4562 70.7403 38.9652 70.7403 37.44C70.7413 36.4279 70.5428 35.4255 70.1562 34.4901C69.7695 33.5547 69.2023 32.7047 68.487 31.9887C67.7716 31.2726 66.9222 30.7046 65.9872 30.317C65.0522 29.9295 64.05 29.73 63.0378 29.73ZM63.0378 39.48C62.6322 39.4815 62.2353 39.3625 61.8975 39.1381C61.5596 38.9137 61.296 38.594 61.1401 38.2195C60.9842 37.8451 60.9431 37.4328 61.0218 37.0349C61.1006 36.637 61.2957 36.2715 61.5825 35.9847C61.8693 35.6979 62.2349 35.5028 62.6327 35.424C63.0306 35.3452 63.4429 35.3864 63.8173 35.5423C64.1918 35.6982 64.5115 35.9618 64.7359 36.2997C64.9603 36.6375 65.0793 37.0344 65.0778 37.44C65.0778 37.981 64.8629 38.4999 64.4803 38.8825C64.0977 39.2651 63.5789 39.48 63.0378 39.48Z" fill="white"/>
<path d="M101.557 29.9023C100.034 29.9038 98.5458 30.3568 97.2801 31.2041C96.0144 32.0513 95.0283 33.2548 94.4465 34.6624C93.8646 36.07 93.7132 37.6184 94.0112 39.1121C94.3093 40.6057 95.0435 41.9775 96.121 43.0539C97.1985 44.1304 98.571 44.8633 100.065 45.1598C101.559 45.4564 103.107 45.3035 104.514 44.7203C105.921 44.1371 107.124 43.1498 107.97 41.8833C108.816 40.6168 109.267 39.1279 109.267 37.6048C109.267 36.5927 109.068 35.5904 108.68 34.6554C108.293 33.7205 107.725 32.871 107.009 32.1557C106.293 31.4403 105.443 30.8731 104.507 30.4865C103.572 30.0998 102.569 29.9013 101.557 29.9023ZM101.557 39.6523C101.154 39.6508 100.76 39.5299 100.426 39.3049C100.092 39.0798 99.8312 38.7607 99.678 38.3878C99.5247 38.0149 99.4854 37.605 99.5649 37.2097C99.6445 36.8145 99.8394 36.4517 100.125 36.1672C100.411 35.8826 100.774 35.6891 101.17 35.611C101.565 35.5329 101.975 35.5737 102.347 35.7283C102.72 35.8829 103.038 36.1444 103.262 36.4797C103.485 36.815 103.605 37.2091 103.605 37.6123C103.604 37.8802 103.55 38.1453 103.447 38.3924C103.343 38.6395 103.192 38.8639 103.002 39.0526C102.812 39.2413 102.586 39.3908 102.339 39.4924C102.091 39.594 101.825 39.6458 101.557 39.6448V39.6523Z" fill="white"/>
<path d="M107.67 9.46484L106.567 27.8698H112.972L113.527 16.0723L120.292 16.1173L120.637 9.46484H107.67Z" fill="white"/>
<path d="M105.578 9.46488H97.523V5.69238H90.9081L90.9006 9.46488H83.2131L82.8006 16.0799H86.288L79.373 27.8699H88.3355L93.4581 17.4449L95.3331 27.8699H104.295L100.59 16.0799H105.188L105.578 9.46488Z" fill="white"/>
<path d="M137.88 27.8699H144.398L145.5 9.44238H123.495L123.06 16.2074L138.563 16.3424L137.88 27.8699Z" fill="white"/>
<path d="M134.498 36.6823H133.11L133.56 25.6948H126.465L125.985 36.6823H116.265L115.928 43.1248H125.415H134.498H143.708L144.06 36.6823H134.498Z" fill="white"/>
<path d="M24.8175 9.2998H18.63L18.3075 14.6773H11.5575L11.88 9.2998H5.7075L4.5 29.4148H23.625L24.8175 9.2998ZM17.9325 20.8723L17.7975 23.2498H11.0475L11.1975 20.9023L17.9325 20.8723Z" fill="white"/>
<path d="M27.5477 9.2998L26.3477 29.4148H32.5427L33.3452 15.9073H39.9752L40.3127 9.2998H27.5477Z" fill="white"/>
<path d="M23.5196 32.1001H17.1071L16.3271 45.1126H37.9871L38.3921 38.7751H23.1221L23.5196 32.1001Z" fill="white"/>
</svg>
